<?xml version="1.0" standalone="no"?><!DOCTYPE svg PUBLIC "-//W3C//DTD SVG 1.1//EN" "http://www.w3.org/Graphics/SVG/1.1/DTD/svg11.dtd"><svg t="1645449670696" class="icon" viewBox="0 0 1024 1024" version="1.1" xmlns="http://www.w3.org/2000/svg" p-id="3334" xmlns:xlink="http://www.w3.org/1999/xlink" width="32" height="32"><defs><style type="text/css"></style></defs><path d="M945.61935 512.005117c0 239.677754-194.166211 433.955506-433.642374 433.955506S78.379627 751.682871 78.379627 512.005117c0-239.664452 194.122209-433.964716 433.597349-433.964716S945.61935 272.340665 945.61935 512.005117zM664.492578 579.947532c-10.145058-10.146081-25.442462-10.413164-34.740222-1.115404-0.714268 0.735757-1.450025 1.248434-2.049682 2.073218l-89.771583 89.478917-0.289596-401.923976c0-12.352329-11.661597-22.342868-25.976628-22.342868-14.360056 0-25.352411 9.990538-25.352411 22.342868 0 0.980327-0.155543 1.827625 0 2.76395l-0.245593 399.136489-89.747024-89.456405c-0.602727-0.825808-1.337461-1.338485-2.073218-2.073218-9.275247-9.29776-24.571628-9.030677-34.739199 1.115404-10.123568 10.122545-10.836813 25.886577-1.560542 35.184337l131.689275 132.135436c2.876514 4.415566 7.157004 8.027837 12.664438 9.945513 2.808976 1.091868 5.79703 1.559519 8.830109 1.515516 0.312108 0.022513 0.557702 0.155543 0.847298 0.155543 0.223081 0 0.402159-0.11154 0.623193-0.11154 3.167133 0.067538 6.244214-0.445138 9.119705-1.583055 5.418406-1.895163 9.610892-5.462408 12.509918-9.765411l131.822304-132.292002C675.351903 605.833085 674.615123 590.069053 664.492578 579.947532z" p-id="3335" fill="#ffffff"></path></svg>