<?xml version="1.0" standalone="no"?><!DOCTYPE svg PUBLIC "-//W3C//DTD SVG 1.1//EN" "http://www.w3.org/Graphics/SVG/1.1/DTD/svg11.dtd"><svg t="1644888482507" class="icon" viewBox="0 0 1252 1024" version="1.1" xmlns="http://www.w3.org/2000/svg" p-id="4437" xmlns:xlink="http://www.w3.org/1999/xlink" width="244.53125" height="200"><defs><style type="text/css"></style></defs><path d="M634.608631 76.217982c-227.109489 0-369.456978 92.657543-442.076177 222.669174-93.11296 172.112945-128.417672 39.29456-128.417672 249.127907 0 160.034497 28.983327 88.048922 135.437033 186.50313a311.886339 311.886339 0 0 0 31.191109 32.884072l-0.168306-0.069302s59.189349 68.995664 98.681917 196.73021c17.786011 57.526088 98.2364 51.150251 112.537481-12.1032 15.637631-30.503033 18.756247-55.585615 47.571268-55.585615 39.378713 10.415187 84.24223 16.340557 131.8828 16.340557 50.170114 0 97.246364-6.563944 138.085381-18.043421 45.106076 0 49.402836 36.438304 49.402836 73.71814 0 51.274005 66.802732 46.997046 112.537482 4.692774 125.056497-115.661048 181.280686-272.022508 199.388459-332.64246a302.20873 302.20873 0 0 0 6.375837-23.13221c0.381164-1.549408 0.564321-2.371138 0.564321-2.371138 5.306597-23.513374 8.098501-48.576155 8.098501-75.247746 20.696719-239.885914-157.287145-463.470872-501.09227-463.470872z" fill="#FFE8B0" p-id="4438"></path><path d="M1048.538062 377.793088c0 170.07842-138.763556 307.965793-382.461112 307.965794-152.302309 0-345.374333-53.862951-424.66638-135.778596-47.576218-49.160277-189.156429-31.859384-161.509651-86.039147 22.835199-44.749663 50.477026-75.975423 89.182514-126.006932 92.350632-119.378636 246.578562-248.197273 418.290543-248.197273 243.697555 0.0099 461.164086 117.972784 461.164086 288.056154z" fill="#FFF2B8" p-id="4439"></path><path d="M782.60428 799.29135s49.744398 122.98732 84.950107 122.98732c83.470002 0 67.961075-75.242796 110.854419-163.445173 23.008455-47.338609 140.367416-67.357153 140.367416-329.004075 0 0 84.554092 307.970744-264.973446 579.829895 0 0-48.199941 20.914527-48.199941-78.544568s-69.817394-6.257033-184.3399-18.394884c-114.522505-12.127951-179.409517-36.522457-185.42399 56.110335 0 0-49.689946 67.312601-106.56756-4.757127-56.882564-72.059828-44.279395-202.734783-211.348103-285.704816 0 0-94.444559 17.469199-52.783812-87.266793 0 0 196.403498 20.478911 244.954903 133.75397 27.419069 63.986078 14.429786 200.898265 77.688186 202.274416 51.689821 1.133592 50.650282-127.8385 90.603217-127.8385-0.0099 0 124.59118 66.347315 304.218504 0z" fill="#F2DBA2" p-id="4440"></path><path d="M634.608631 64.085081c-268.473226 0-394.351453 124.477325-452.66957 228.891555-38.071865 70.376765-65.11967 87.20244-84.870904 99.488797-33.507795 20.845225-45.091226 34.235472-45.091226 155.559531 0 106.527958 13.667458 118.289595 56.862763 139.41203 19.63243 9.603357 46.521829 22.760946 82.470065 56.001431l-1.168244-1.242496a326.825994 326.825994 0 0 0 32.398954 34.156269l12.707122-20.221502-13.885266 19.10276c0.569271 0.668275 58.115159 68.921411 96.295929 192.4186 9.385549 30.359478 35.428466 49.194928 66.352265 47.996984 28.032892-1.08904 60.431846-20.374957 69.619387-61.020918l-1.039539 2.856256c3.539382-6.905507 6.479791-13.563504 9.073688-19.454222 9.67761-21.939215 13.73181-29.532797 27.701229-29.532798l-3.103765-0.400965c41.418189 10.954757 88.093473 16.746472 134.986565 16.746472 49.402836 0 98.285902-6.395638 141.372304-18.488937l-3.286923 0.450467c28.211098 0 37.269935 14.954506 37.269935 61.575338 0 21.315492 9.608307 37.245184 27.072556 44.878368 28.349703 12.39031 72.861757-0.762328 105.849784-31.280212 126.942517-117.408463 184.092391-275.537138 202.784285-338.072813a319.272014 319.272014 0 0 0 6.563944-23.845036c0.366314-1.504856 0.559371-2.390939 0.589071-2.499843 5.559057-24.627165 8.380661-50.843339 8.380662-77.871343l-0.044552 1.044489c10.360735-120.145914-27.493322-233.792237-106.58241-319.989791-65.565186-71.465806-189.339586-156.658471-406.608109-156.658471z m488.969269 475.608723c0 25.240988-2.618647 49.655295-7.791589 72.574647l-0.51482 2.143429a289.189746 289.189746 0 0 1-6.153078 22.340181c-18.177075 60.842711-73.530032 214.085555-196.061935 327.434866-28.349703 26.216174-62.748532 34.240422-79.63856 26.854748-8.430163-3.682937-12.523965-11.083462-12.523965-22.637191 0-27.869536 0-85.85599-61.545637-85.85599h-1.673162l-1.60386 0.450467c-40.967722 11.514128-87.583604 17.602854-134.803409 17.602854-44.828866 0-89.36072-5.514505-128.783985-15.944543l-1.524657-0.405915h-1.579109c-30.503033 0-40.36875 22.379782-49.912704 44.021986-2.579046 5.846167-5.247195 11.890342-8.459865 18.167175l-0.697975 1.366251-0.341563 1.494955c-6.781752 30.012965-29.493196 41.44789-46.888142 42.121115-15.60298 0.603922-34.883946-7.197567-42.215169-30.913898-34.898797-112.879044-82.60867-176.483958-100.567937-200.432948l-14.216928 18.548339 12.875428-20.142298a301.812715 301.812715 0 0 1-29.983264-31.601974l-0.53957-0.663325-0.628673-0.579172c-38.561933-35.661125-67.302701-49.719647-88.286531-59.976428-34.953249-17.097935-43.254707-21.152136-43.254707-117.616371 0-114.007686 9.850866-120.140964 33.64145-134.946964 20.810573-12.949681 52.259092-32.512808 93.315917-108.404078 55.065846-98.612614 174.691991-216.323038 431.39368-216.323038 164.994581 0 299.411876 51.457162 388.718144 148.802529 74.445816 81.138465 110.052489 188.210944 100.290727 301.495903l-0.049502 0.514819v0.509869h0.00495z" fill="#6E6E96" p-id="4441"></path><path d="M303.381923 292.352913c-56.956816-71.168795-45.432788-175.043454 25.740957-232.00027s175.043454-45.432788 232.00027 25.740956 45.432788 175.043454-25.740956 232.005221" fill="#FFF2B8" p-id="4442"></path><path d="M1123.30069 553.326611v233.015058a12.142801 12.142801 0 0 0 24.270752 0v-233.015058a12.137851 12.137851 0 0 0-24.270752 0z" fill="#6E6E96" p-id="4443"></path><path d="M289.04619 419.00832m-27.508172 0a27.508172 27.508172 0 1 0 55.016345 0 27.508172 27.508172 0 1 0-55.016345 0Z" fill="#6E6E96" p-id="4444"></path><path d="M343.691271 131.551138c71.173745-56.956816 175.043454-45.432788 232.000271 25.740957a165.682656 165.682656 0 0 1 18.30578 28.359603 164.281754 164.281754 0 0 0-36.106642-97.929488c-56.956816-71.178695-160.826526-82.697773-232.00027-25.740957-62.189161 49.769149-78.831679 135.352879-44.041787 203.650567-1.544457-50.130513 19.676981-100.340228 61.842648-134.080682z" fill="#F2E2BA" p-id="4445"></path><path d="M518.32386 318.09882s-20.973929 27.72598 11.83094 36.185845c32.804869 8.454914 174.91475-111.928609 104.453831-265.928832l-65.614688 3.77699s66.149308 146.089828-50.670083 225.965997z" fill="#F2E2BA" p-id="4446"></path><path d="M312.856575 284.774182c-25.518198-31.889085-37.096678-71.807368-32.587061-112.408777 4.504667-40.601409 24.547962-77.014962 56.437047-102.53316s71.812318-37.096678 112.408777-32.592011 77.010012 24.547962 102.52821 56.437047c25.523148 31.889085 37.101629 71.817269 32.592011 112.408777-4.509618 40.596458-24.547962 77.014962-56.441997 102.53316a12.127951 12.127951 0 1 0 15.167363 18.949304c36.953123-29.577349 60.184336-71.762817 65.401831-118.809365 5.222444-47.041598-8.192554-93.301067-37.764954-130.25419C509.557084 2.227583 397.826483-10.167678 321.539198 50.877991c-36.953123 29.577349-60.179386 71.772717-65.39688 118.809364-5.217494 47.041598 8.192554 93.301067 37.769903 130.25419a12.127951 12.127951 0 1 0 18.944354-15.167363z" fill="#6E6E96" p-id="4447"></path><path d="M946.148457 340.038035c-16.711821 37.448142-73.772591-4.56902-127.452386-28.52296-53.674844-23.95394-83.638308-20.775922-66.931437-58.224063s73.772591-48.388048 127.452386-24.434108c53.674844 23.95889 83.643258 73.73299 66.931437 111.181131z" fill="#FFFFFF" p-id="4448"></path></svg>