<?xml version="1.0" standalone="no"?><!DOCTYPE svg PUBLIC "-//W3C//DTD SVG 1.1//EN" "http://www.w3.org/Graphics/SVG/1.1/DTD/svg11.dtd"><svg t="1645165642300" class="icon" viewBox="0 0 1024 1024" version="1.1" xmlns="http://www.w3.org/2000/svg" p-id="3709" xmlns:xlink="http://www.w3.org/1999/xlink" width="200" height="200"><defs><style type="text/css"></style></defs><path d="M278.022 575.987c0.658 0.009 1.318 0.013 1.978 0.013 45.55 0 86.422-20.037 114.28-51.777 26.997 60.15 44.904 90.226 53.72 90.226 8.622 0 9.331-28.767 2.126-86.3C469.431 535.17 490.268 539 512 539c21.648 0 42.408-3.8 61.65-10.77-8.139 59.04-7.356 88.56 2.35 88.56 9.861 0 28.106-30.475 54.734-91.423C658.565 556.444 698.999 576 744 576c1.1 0 2.197-0.012 3.29-0.035l0.061 0.035C689.03 662.202 653.246 724.182 640 761.938c-9.609 27.389-12.247 55.97-7.915 85.742 2.386 16.396-8.972 31.622-25.368 34.007a30 30 0 0 1-4.32 0.313H429.73c-16.569 0-30-13.431-30-30a30 30 0 0 1 0.188-3.35c2.438-21.698-2.868-51.382-15.917-89.053-21.99-63.48-57.323-124.68-106-183.597l0.022-0.013z" fill="#F4E2AC" p-id="3710"></path><path d="M512 178c77.414 0 143.876 46.828 172.534 113.668 20.567-9.83 43.602-15.335 67.924-15.335 87.008 0 157.542 70.44 157.542 157.334C910 520.559 839.466 591 752.458 591c-55.658 0-104.574-28.824-132.599-72.34-30.51 21.447-67.712 34.042-107.859 34.042-40.147 0-77.348-12.595-107.86-34.043C376.117 562.176 327.2 591 271.543 591 184.534 591 114 520.56 114 433.667s70.534-157.334 157.542-157.334c24.322 0 47.357 5.505 67.924 15.335C368.124 224.828 434.586 178 512 178z" fill="#7ED321" p-id="3711"></path><path d="M470.272 882h132.126a30 30 0 0 0 4.32-0.313c16.395-2.385 27.753-17.61 25.367-34.007-1.932-13.28-2.478-26.321-1.637-39.127 1.045-15.904 4.23-31.442 9.552-46.615 12.125-34.561 43.134-89.42 93.03-164.574a164.675 164.675 0 0 1-81.462-33.221c-38.98 31.991-69.514 55.859-76.528 52.544-7.52-1.66-8.945-23.487-4.274-65.48-18.77 5.912-38.539 8.995-58.766 8.995-9.66 0-19.216-0.704-28.609-2.082-14.838 33.28-25.808 51.732-32.911 55.355-0.737 0.649-1.564 0.974-2.48 0.974-8.166 0-24.13-25.802-47.894-77.406a165.098 165.098 0 0 1-57.578 45.47c45.084 57.373 78.241 116.792 99.471 178.256 13.606 39.392 19.138 70.434 16.596 93.123a31.462 31.462 0 0 0-0.196 3.503c0 9.973 4.64 18.859 11.873 24.605z m175.107-71.877C755.516 822.528 832 849.823 832 881.5c0 43.354-143.269 78.5-320 78.5s-320-35.146-320-78.5c0-32.041 78.252-59.598 190.432-71.799-2.566-13.224-6.756-28.306-12.606-45.194-19.795-57.145-50.775-112.502-93.008-166.09-1.754 0.055-3.513 0.083-5.276 0.083-91.148 0-165.042-73.796-165.042-164.833 0-91.037 73.894-164.834 165.042-164.834 22.34 0 44.062 4.441 64.174 12.927C367.696 214.543 435.793 170.5 512 170.5s144.303 44.043 176.284 111.26c20.112-8.486 41.834-12.927 64.174-12.927 91.148 0 165.042 73.797 165.042 164.834S843.606 598.5 752.458 598.5c-0.718 0-1.436-0.005-2.153-0.014-52.043 77.87-84.168 134.261-96.15 168.417-4.934 14.064-7.86 28.458-8.776 43.22z m-58.845-264.645c-2.136 17.61-3.276 31.836-3.434 42.58 0.365-0.593 0.735-1.204 1.11-1.83 7.304-12.2 16.171-29.827 26.531-52.788a194.239 194.239 0 0 1-24.207 12.038z m-170.943-10.69c9.495 20.427 17.63 36.42 24.359 47.912-0.294-9.892-1.26-22.377-2.906-37.397a194.183 194.183 0 0 1-21.453-10.515z m412.131 28.526c44.714-25.941 74.778-74.29 74.778-129.647 0-82.749-67.174-149.834-150.042-149.834-9.644 0-19.156 0.909-28.443 2.687C691.483 315.548 671 357.794 671 404.824c0 86.944 70.004 157.537 156.722 158.49zM677.43 294.134C649.173 228.76 584.573 185.5 512 185.5a180.79 180.79 0 0 0-35.266 3.462C438.228 223.292 414 273.147 414 328.631c0 103.553 84.394 187.5 188.5 187.5 2.67 0 5.326-0.056 7.968-0.165 0.927-0.605 1.848-1.22 2.765-1.843C599.729 490.799 592 463.713 592 434.824c0-61.184 34.667-114.27 85.43-140.69z m-344.72 2.673c-19.062-8.51-39.79-12.974-61.168-12.974-9.038 0-17.889 0.798-26.486 2.327C212.5 315.19 192 357.45 192 404.5c0 86.504 69.298 156.823 155.408 158.47a150.316 150.316 0 0 0 49.616-47.126C350.317 481.718 320 426.696 320 364.631c0-23.919 4.502-46.79 12.71-67.824z" fill="#162B3F" p-id="3712"></path></svg>